# xmcd
#
# Track frame offsets: 
#        150
#        27687
#        48362
#        80079
#        104600
#        132175
#        152345
#        171412
#        195087
#        217250
#        236575
#        257887
#        280312
#        305435
#        326600
#
# Disc length: 4632 seconds
#
# Revision: 0
# Processed by: cddbd v1.5.2PL0 Copyright (c) Steve Scherf et al.
# Submitted via: ExactAudioCopy v1.0b3
#
DISCID=da12160f
DTITLE=THE STREET SLIDERS - LET THINGS SLIDE
DYEAR=2001
DGENRE=Rock and Roll
TTITLE0=Get Up and Go
TTITLE1=TOO BAD
TTITLE2=いつかみたかげろう
TTITLE3=Ride on fuckin' age
TTITLE4=Shinin' You
TTITLE5=Daydreamer
TTITLE6=Hallo Old Friends
TTITLE7=GET OUT OF MY MIND
TTITLE8=EMPTY HEART
TTITLE9=届かぬラブレター
TTITLE10=蜜の味
TTITLE11=ハートに風穴
TTITLE12=BADな女
TTITLE13=いい天気
TTITLE14=Run Silent, Run Deep
EXTD=
EXTT0=
EXTT1=
EXTT2=
EXTT3=
EXTT4=
EXTT5=
EXTT6=
EXTT7=
EXTT8=
EXTT9=
EXTT10=
EXTT11=
EXTT12=
EXTT13=
EXTT14=
PLAYORDER=
